<?xml version="1.0" encoding="iso-8859-1"?>
<!-- Generator: Adobe Illustrator 19.0.0, SVG Export Plug-In . SVG Version: 6.00 Build 0)  -->
<svg version="1.1" id="Layer_1" xmlns="http://www.w3.org/2000/svg" xmlns:xlink="http://www.w3.org/1999/xlink" x="0px" y="0px"
	 viewBox="0 0 502 502" style="enable-background:new 0 0 502 502;" xml:space="preserve">
<g>
	<g>
		<g>
			<path d="M458,302V31c0-5.523-4.478-10-10-10H54c-5.522,0-10,4.477-10,10v251.535C17.059,302.88,0,335.158,0,370.672
				C0,431.507,49.493,481,110.328,481h294.084C458.223,481,502,437.222,502,383.412C502,350.733,485.04,320.007,458,302z M438,41
				v195.87v0.079c-18.782-25.096-48.739-41.367-82.425-41.367c-10.54,0-20.859,1.575-30.784,4.69
				c-15.825-24.709-42.952-39.725-72.729-39.725c-27.547,0-53.507,13.341-69.685,35.325c-8.258-3.013-16.925-4.536-25.866-4.536
				c-40.875,0-74.3,32.508-75.772,73.03c-5.8,1.61-11.39,3.681-16.738,6.16V41H438z M404.412,461H110.328
				C60.521,461,20,420.479,20,370.672c0-30.604,15.471-58.268,39.558-74.697c0.021-0.014,0.043-0.023,0.064-0.037l0.001-0.008
				c9.799-6.671,21.014-11.494,33.204-13.886c0.025-0.005,0.048-0.013,0.073-0.018c12.455-2.433,25.642-2.207,37.99,0.667
				c0.763,0.177,1.524,0.263,2.275,0.263c4.544,0,8.656-3.119,9.73-7.736c1.252-5.379-2.094-10.754-7.473-12.006
				c-11.162-2.597-22.861-3.419-34.355-2.47c3.194-27.768,26.833-49.407,55.443-49.407c5.427,0,10.713,0.767,15.807,2.277
				c-4.398,10.515-6.697,21.857-6.697,33.375c0,5.523,4.478,10,10,10c5.522,0,10-4.477,10-10c0-11.766,3.112-23.286,8.992-33.383
				c0.037-0.06,0.079-0.115,0.115-0.176c11.901-20.282,33.87-32.881,57.333-32.881c25.187,0,47.91,13.984,59.305,36.495
				c0.144,0.284,0.301,0.558,0.467,0.823c0.071,0.172,0.134,0.346,0.215,0.516c4.282,8.961,6.453,18.586,6.453,28.606
				c0,5.523,4.478,10,10,10c5.522,0,10-4.477,10-10c0-9.824-1.611-19.362-4.794-28.466c7.087-1.938,14.404-2.939,21.867-2.939
				c43.476,0,79.217,33.65,82.608,76.269c-10.764-3.958-22.237-6.027-33.771-6.027c-5.522,0-10,4.477-10,10s4.478,10,10,10
				c42.177,0,77.588,35.332,77.588,77.588C482,426.194,447.194,461,404.412,461z"/>
			<path d="M46.018,345.613c1.57,0.902,3.283,1.331,4.973,1.331c3.463,0,6.831-1.801,8.68-5.019
				c3.73-6.491,8.613-12.135,14.512-16.774c4.341-3.414,5.093-9.701,1.679-14.042c-3.413-4.342-9.701-5.093-14.042-1.679
				c-7.921,6.229-14.478,13.809-19.488,22.53C39.578,336.749,41.229,342.861,46.018,345.613z"/>
			<path d="M110,428.773c-31.981,0-58-26.019-58-58c0-5.523-4.478-10-10-10s-10,4.477-10,10c0,43.009,34.99,78,78,78
				c5.522,0,10-4.477,10-10S115.522,428.773,110,428.773z"/>
			<path d="M361,88h43c5.522,0,10-4.477,10-10s-4.478-10-10-10h-43c-5.522,0-10,4.477-10,10S355.478,88,361,88z"/>
			<path d="M98,132h306c5.522,0,10-4.477,10-10s-4.478-10-10-10H98c-5.522,0-10,4.477-10,10S92.478,132,98,132z"/>
			<path d="M98,88h223c5.522,0,10-4.477,10-10s-4.478-10-10-10H98c-5.522,0-10,4.477-10,10S92.478,88,98,88z"/>
		</g>
	</g>
</g>
<g>
</g>
<g>
</g>
<g>
</g>
<g>
</g>
<g>
</g>
<g>
</g>
<g>
</g>
<g>
</g>
<g>
</g>
<g>
</g>
<g>
</g>
<g>
</g>
<g>
</g>
<g>
</g>
<g>
</g>
</svg>
