<?xml version="1.0" encoding="utf-8"?>
<!-- Generator: Adobe Illustrator 15.1.0, SVG Export Plug-In . SVG Version: 6.00 Build 0)  -->
<!DOCTYPE svg PUBLIC "-//W3C//DTD SVG 1.1//EN" "http://www.w3.org/Graphics/SVG/1.1/DTD/svg11.dtd">
<svg version="1.1" id="Layer_1" xmlns="http://www.w3.org/2000/svg" xmlns:xlink="http://www.w3.org/1999/xlink" x="0px" y="0px"
	 width="100.8px" height="127px" viewBox="0 0 100.8 127" enable-background="new 0 0 100.8 127" xml:space="preserve">
<path fill="#808285" d="M88.977,52.226c-6.145,0-11.38,5.349-11.38,10.95c0,1.206,1.112,7.908-2.857,11.878
	c-2.908,2.91-9.929,2.928-11.509,2.928c-1.582,0-8.599-0.018-11.509-2.928c-3.967-3.97-2.858-10.672-2.858-11.878
	c0-5.601-5.231-10.95-11.38-10.95c-6.312,0-11.43,5.118-11.43,11.43s5.118,11.433,11.43,11.433c2.738,0,7.413-0.729,11.234,3.089
	c3.817,3.817,3.121,11.611,3.121,11.611c0.208,6.131,5.212,11.046,11.392,11.046c6.181,0,11.184-4.916,11.395-11.046
	c0,0-0.7-7.794,3.121-11.611c3.821-3.818,8.497-3.089,11.23-3.089c6.313,0,11.434-5.121,11.434-11.433S95.29,52.226,88.977,52.226z"
	/>
<path fill="#D1D3D4" d="M37.485,126.583c6.147,0,11.38-5.349,11.38-10.95c0-1.206-1.111-7.908,2.857-11.878
	c2.909-2.91,9.928-2.927,11.509-2.927c1.581,0,8.6,0.018,11.509,2.927c3.968,3.97,2.857,10.672,2.857,11.878
	c0,5.601,5.234,10.95,11.38,10.95c6.312,0,11.432-5.118,11.432-11.43c0-6.312-5.12-11.433-11.432-11.433
	c-2.736,0-7.412,0.729-11.232-3.088c-3.819-3.818-3.121-11.611-3.121-11.611c-0.209-6.131-5.212-11.047-11.393-11.047
	S52.048,82.889,51.839,89.02c0,0,0.698,7.793-3.121,11.611c-3.821,3.817-8.496,3.088-11.232,3.088
	c-6.312,0-11.432,5.121-11.432,11.433C26.054,121.465,31.173,126.583,37.485,126.583z"/>
<path fill="#6D6E71" d="M48.943,63.609c0-6.146-5.349-11.38-10.95-11.38c-1.207,0-7.908,1.112-11.878-2.857
	c-2.91-2.908-2.927-9.929-2.927-11.509c0-1.582,0.017-8.599,2.927-11.51c3.97-3.967,10.671-2.857,11.878-2.857
	c5.601,0,10.95-5.232,10.95-11.38c0-6.312-5.118-11.43-11.43-11.43S26.08,5.803,26.08,12.116c0,2.738,0.729,7.413-3.088,11.234
	c-3.818,3.818-11.612,3.121-11.612,3.121C5.249,26.679,0.333,31.682,0.333,37.863c0,6.18,4.916,11.184,11.047,11.395
	c0,0,7.793-0.7,11.612,3.121c3.817,3.821,3.088,8.497,3.088,11.231c0,6.312,5.121,11.433,11.433,11.433S48.943,69.922,48.943,63.609
	z"/>
<path d="M48.943,115.15c0-6.145-5.349-11.38-10.95-11.38c-1.207,0-7.908,1.113-11.878-2.857c-2.91-2.907-2.927-9.928-2.927-11.509
	c0-1.581,0.017-8.599,2.927-11.509c3.97-3.967,10.671-2.858,11.878-2.858c5.601,0,10.95-5.232,10.95-11.38
	c0-6.312-5.118-11.43-11.43-11.43S26.08,57.344,26.08,63.656c0,2.737,0.729,7.413-3.088,11.234
	c-3.818,3.818-11.612,3.121-11.612,3.121C5.249,78.219,0.333,83.223,0.333,89.403s4.916,11.184,11.047,11.395
	c0,0,7.793-0.7,11.612,3.121c3.817,3.821,3.088,8.496,3.088,11.231c0,6.312,5.121,11.433,11.433,11.433
	S48.943,121.462,48.943,115.15z"/>
</svg>
